<?xml version="1.0" standalone="no"?>
<!DOCTYPE svg PUBLIC "-//W3C//DTD SVG 20010904//EN"
 "http://www.w3.org/TR/2001/REC-SVG-20010904/DTD/svg10.dtd">
<svg version="1.0" xmlns="http://www.w3.org/2000/svg"
 width="4753.000000pt" height="4753.000000pt" viewBox="0 0 4753.000000 4753.000000"
 preserveAspectRatio="xMidYMid meet">
<metadata>
Created by potrace 1.14, written by Peter Selinger 2001-2017
</metadata>
<g transform="translate(0.000000,4753.000000) scale(0.100000,-0.100000)"
fill="#000000" stroke="none">
<path d="M12545 45680 c-3 -5 -4 -13 -2 -17 3 -5 8 -53 12 -108 4 -55 8 -116
10 -135 2 -19 6 -75 9 -125 4 -49 9 -112 11 -140 2 -27 7 -79 10 -115 3 -36 8
-99 10 -140 3 -41 7 -97 10 -125 3 -27 7 -79 10 -115 3 -36 7 -99 11 -140 3
-41 7 -97 9 -125 8 -99 16 -211 20 -255 2 -25 7 -85 10 -135 3 -49 8 -103 10
-120 2 -16 7 -68 10 -115 3 -47 7 -112 10 -145 3 -33 7 -94 10 -135 3 -41 7
-91 9 -110 3 -19 7 -80 11 -135 3 -55 8 -118 10 -140 2 -22 7 -80 10 -130 4
-49 8 -106 10 -125 4 -39 16 -200 30 -390 3 -47 8 -92 10 -100 7 -22 -4 -33
-60 -58 -27 -13 -61 -32 -75 -42 l-25 -20 30 -1 c17 0 39 -2 50 -4 11 -3 36
-6 55 -7 33 -3 35 -5 38 -41 l3 -38 -28 15 c-48 24 -194 65 -298 82 -65 11
-160 17 -270 18 -194 0 -236 -8 -385 -77 -103 -47 -219 -151 -277 -249 -41
-67 -79 -175 -93 -264 -11 -66 -15 -275 -6 -321 3 -12 7 -48 11 -80 3 -32 8
-67 10 -78 3 -11 7 -31 9 -45 12 -68 29 -127 77 -255 86 -234 105 -347 79
-460 -5 -22 -11 -52 -14 -67 -2 -15 -27 -96 -55 -181 -113 -345 -111 -446 20
-808 218 -604 265 -800 235 -979 -17 -96 -89 -202 -156 -230 -35 -15 -36 -19
-10 -53 20 -25 27 -57 13 -57 -5 0 -28 -18 -53 -39 l-45 -39 22 -24 c12 -13
42 -59 68 -103 26 -44 56 -90 67 -101 l19 -22 -42 -41 -42 -40 25 -38 c42 -64
50 -103 45 -220 -7 -148 9 -182 116 -247 l56 -33 -31 -39 c-18 -22 -55 -62
-84 -90 -45 -43 -53 -58 -64 -110 -7 -32 -24 -84 -38 -114 -37 -80 -37 -92 3
-136 49 -55 48 -57 -28 -118 -51 -42 -51 -59 1 -71 15 -3 37 -13 49 -23 l23
-17 -56 -70 c-116 -145 -172 -258 -180 -362 -4 -45 -2 -53 13 -54 10 0 29 -2
43 -4 14 -2 51 -5 82 -6 31 -2 54 -7 52 -11 -3 -4 -7 -16 -9 -25 -3 -10 -9
-36 -15 -58 -6 -22 -12 -45 -13 -52 -2 -7 -6 -16 -10 -19 -16 -16 -5 -36 26
-46 74 -26 208 -99 266 -145 9 -7 25 -20 36 -28 20 -15 20 -16 -5 -32 -14 -10
-43 -36 -65 -58 -46 -47 -168 -196 -163 -199 2 -2 30 -18 64 -37 l61 -34 -48
-84 c-62 -109 -91 -195 -88 -263 l3 -52 -131 -52 c-73 -29 -158 -61 -190 -73
-32 -11 -107 -39 -168 -61 -60 -23 -114 -43 -120 -44 -5 -2 -21 -7 -35 -13
-14 -5 -101 -36 -195 -67 -93 -32 -179 -61 -190 -66 -34 -13 -92 -35 -325
-120 -124 -45 -238 -88 -255 -95 -16 -7 -52 -21 -80 -31 -27 -9 -54 -20 -60
-24 -5 -4 -50 -21 -100 -40 -49 -18 -94 -36 -100 -40 -5 -4 -39 -17 -75 -30
-36 -13 -70 -27 -75 -31 -6 -4 -35 -17 -65 -28 -30 -12 -64 -26 -75 -31 -11
-5 -54 -23 -95 -41 -41 -17 -113 -49 -158 -70 -46 -22 -85 -39 -87 -39 -2 0
-51 -22 -110 -50 -59 -27 -109 -50 -111 -50 -14 0 -738 -367 -769 -390 -5 -4
-41 -24 -80 -44 -38 -20 -77 -41 -85 -46 -8 -6 -88 -53 -178 -105 -870 -508
-1571 -1085 -2022 -1664 -297 -381 -507 -806 -547 -1106 -7 -57 -10 -57 73 15
167 145 394 301 629 430 35 20 67 38 70 42 7 7 337 171 437 217 81 37 242 106
353 151 44 18 99 41 122 51 24 10 46 19 51 19 4 0 46 15 93 34 223 89 751 261
1099 357 58 16 119 33 135 38 34 12 576 148 615 155 14 2 69 14 124 26 124 27
119 26 191 35 51 6 274 42 370 60 17 4 80 17 140 31 61 14 117 27 125 29 34 7
147 37 175 45 17 6 84 26 150 46 376 112 780 277 1194 486 96 48 177 86 178
84 2 -2 6 -28 8 -57 3 -30 7 -70 10 -89 2 -19 7 -55 10 -80 3 -25 7 -56 10
-70 2 -14 7 -36 9 -50 20 -108 32 -155 65 -257 44 -134 107 -269 170 -361 45
-68 163 -197 192 -213 16 -8 15 -3 -5 43 -54 124 -128 432 -142 588 -1 19 -5
55 -9 80 -3 25 -8 148 -11 274 l-5 228 93 -7 c51 -4 100 -9 110 -10 9 -2 38
-7 65 -11 159 -23 155 -16 61 -95 -46 -38 -98 -76 -116 -85 l-33 -15 28 -22
c77 -60 105 -146 75 -237 -16 -48 -66 -129 -105 -170 l-24 -25 84 -31 c46 -18
94 -35 107 -38 23 -6 23 -8 13 -41 -6 -19 -14 -35 -19 -35 -4 0 -8 -8 -8 -18
0 -10 -7 -27 -15 -38 -20 -26 -19 -44 3 -44 10 0 56 -13 102 -28 62 -21 80
-31 69 -38 -8 -5 -39 -40 -69 -79 -30 -38 -60 -74 -67 -78 -7 -4 -13 -11 -13
-15 0 -7 86 -14 192 -16 27 -1 48 -4 48 -8 0 -3 -29 -42 -64 -85 -93 -115
-133 -201 -131 -283 0 -23 4 -25 46 -27 26 -1 73 -6 105 -12 32 -6 73 -11 91
-11 18 0 33 -2 33 -5 0 -3 -12 -44 -26 -92 -24 -80 -32 -106 -50 -154 -4 -12
-453 -319 -532 -364 -9 -5 -55 -35 -102 -66 -47 -31 -123 -81 -170 -111 -47
-30 -130 -84 -185 -120 -94 -60 -155 -100 -315 -203 -458 -295 -1047 -678
-1065 -692 -11 -9 -150 -101 -177 -118 -61 -37 -414 -280 -416 -286 -2 -5 -8
-9 -13 -9 -7 0 -123 -78 -174 -117 -5 -5 -30 -21 -55 -38 -25 -16 -49 -34 -55
-38 -11 -9 -143 -104 -268 -193 -77 -55 -544 -405 -582 -436 -20 -17 -218
-175 -284 -226 -19 -15 -39 -32 -45 -37 -6 -6 -65 -55 -131 -109 -96 -80 -311
-266 -371 -321 -6 -5 -48 -44 -94 -85 -294 -265 -723 -701 -931 -945 -19 -22
-39 -44 -45 -50 -6 -5 -57 -66 -114 -135 -251 -302 -339 -399 -620 -680 -211
-211 -369 -362 -515 -491 -27 -24 -52 -47 -55 -50 -4 -5 -94 -86 -243 -218
-18 -16 -111 -98 -207 -182 -96 -85 -180 -158 -186 -164 -6 -5 -41 -37 -79
-70 -37 -33 -73 -64 -79 -70 -6 -5 -56 -50 -111 -100 -120 -109 -109 -98 -285
-265 -268 -253 -518 -512 -691 -715 -19 -22 -40 -46 -47 -54 -24 -25 -197
-245 -254 -322 -119 -160 -288 -428 -397 -629 -61 -112 -272 -533 -353 -705
-76 -161 -145 -308 -175 -375 -60 -132 -213 -454 -242 -510 -10 -19 -54 -102
-96 -185 -43 -82 -89 -167 -102 -187 -13 -21 -23 -39 -23 -41 0 -2 -22 -42
-48 -88 -27 -46 -62 -109 -79 -139 -16 -30 -62 -111 -100 -180 -269 -478 -604
-1073 -628 -1115 -16 -27 -56 -99 -89 -158 -34 -60 -66 -116 -71 -125 -6 -9
-38 -66 -71 -127 -52 -93 -116 -207 -306 -545 -37 -66 -152 -269 -176 -312
-12 -21 -20 -38 -18 -38 2 0 39 42 82 92 43 51 84 98 90 103 5 6 62 69 125
140 63 72 118 135 124 141 5 6 38 43 73 82 35 39 73 82 85 95 12 13 63 68 112
122 50 55 116 127 148 162 32 34 86 92 120 129 34 37 75 81 91 98 15 17 70 76
121 131 109 118 142 153 324 344 75 79 158 167 184 195 27 28 119 125 205 215
87 90 177 184 202 210 25 26 145 151 266 277 122 126 243 252 270 280 27 29
137 143 244 254 307 318 606 631 689 719 23 24 103 109 179 189 200 212 357
379 447 477 15 17 66 72 114 124 47 52 95 104 106 116 11 11 40 43 65 71 83
91 215 237 230 254 8 9 49 54 90 100 122 138 144 162 170 190 14 14 57 61 95
105 39 43 81 90 95 104 14 15 81 87 150 161 232 252 747 758 914 901 22 19 54
47 70 62 17 16 46 40 64 54 l33 26 16 -22 c158 -226 385 -414 660 -547 106
-51 267 -114 292 -114 9 0 21 -4 27 -9 7 -7 108 -35 209 -57 78 -18 299 -53
374 -59 31 -3 87 -8 125 -11 38 -3 142 -7 232 -8 90 -1 166 -5 169 -7 2 -3 -3
-16 -13 -30 -25 -35 -212 -349 -212 -356 0 -2 -8 -17 -18 -31 -11 -15 -36 -58
-57 -97 -20 -38 -52 -97 -71 -130 -92 -167 -404 -785 -404 -800 0 -3 -25 -58
-100 -220 -46 -100 -124 -281 -199 -465 -40 -96 -80 -195 -91 -220 -10 -25
-33 -83 -50 -130 -18 -47 -38 -98 -45 -115 -57 -132 -416 -1179 -430 -1252 -2
-12 -6 -27 -10 -33 -3 -5 -8 -18 -10 -27 -2 -10 -29 -103 -60 -208 -48 -160
-178 -625 -190 -675 -1 -8 -11 -44 -20 -80 -9 -36 -19 -72 -21 -80 -2 -8 -10
-40 -18 -70 -8 -30 -17 -66 -20 -80 -3 -14 -19 -81 -36 -150 -34 -133 -38
-151 -46 -190 -3 -13 -14 -63 -25 -110 -11 -47 -22 -92 -24 -100 -2 -8 -8 -35
-14 -60 -17 -74 -80 -363 -85 -390 -2 -14 -9 -43 -14 -65 -6 -22 -13 -53 -16
-70 -3 -16 -19 -100 -36 -185 -17 -85 -33 -166 -35 -180 -6 -37 -40 -207 -74
-365 -16 -77 -32 -152 -35 -168 -2 -15 -7 -35 -10 -45 -3 -9 -7 -28 -10 -42
-8 -40 -13 -60 -45 -197 -17 -70 -33 -137 -35 -148 -2 -11 -14 -56 -25 -101
-12 -45 -23 -90 -25 -100 -10 -46 -148 -553 -166 -604 -4 -14 -15 -50 -24 -80
-16 -56 -129 -437 -149 -500 -6 -19 -11 -37 -12 -40 -1 -3 -10 -32 -20 -65
-11 -33 -19 -62 -20 -65 -3 -16 -155 -477 -257 -780 -138 -408 -163 -482 -282
-815 -81 -230 -108 -299 -145 -380 -24 -49 -71 -153 -106 -230 -194 -427 -443
-804 -823 -1250 -228 -266 -615 -660 -867 -880 -37 -33 -78 -69 -89 -80 -93
-88 -490 -416 -691 -570 -71 -55 -137 -105 -145 -112 -122 -96 -533 -387 -760
-537 -124 -81 -237 -157 -252 -167 -15 -11 -31 -19 -35 -19 -4 -1 -21 -12 -38
-25 l-29 -24 28 -30 c16 -17 45 -36 65 -43 51 -17 182 -14 277 5 72 15 284 81
353 109 14 6 28 12 31 13 13 4 54 22 170 73 212 93 551 263 758 380 41 23 75
42 77 42 2 0 36 19 77 43 40 24 80 46 88 50 8 4 31 17 50 28 19 12 112 66 205
121 162 96 211 126 490 300 66 41 125 77 132 82 14 8 10 -3 -55 -169 -68 -173
-173 -439 -183 -460 -20 -47 -111 -271 -113 -280 -1 -5 -10 -27 -19 -49 -9
-21 -17 -41 -17 -43 0 -3 -7 -19 -15 -36 -8 -18 -39 -93 -69 -167 -77 -192
-166 -410 -181 -445 -8 -16 -51 -120 -95 -230 -88 -213 -203 -490 -225 -540
-7 -16 -63 -149 -125 -295 -130 -308 -355 -830 -377 -878 -9 -18 -13 -35 -10
-39 11 -10 217 69 347 133 347 172 681 448 1085 894 67 74 226 268 308 375 42
55 81 105 86 111 5 6 61 83 124 170 350 488 684 1030 1229 1994 134 236 302
530 357 622 89 150 346 575 361 598 6 8 15 24 20 35 6 11 18 32 28 47 21 33
190 321 213 363 9 17 44 76 78 133 33 57 61 106 61 108 0 2 11 21 23 42 27 42
65 109 115 202 19 36 43 77 53 91 10 15 23 37 29 50 5 13 25 51 44 84 19 33
45 80 59 105 13 25 61 112 106 194 44 82 81 151 81 153 0 2 51 75 113 161 152
211 264 376 382 562 102 162 235 379 235 385 0 2 23 40 50 85 28 45 50 83 50
84 0 1 43 81 96 177 110 200 335 653 419 844 32 72 69 155 82 185 37 80 169
408 215 530 42 112 128 348 132 365 2 6 6 17 9 25 8 21 108 331 112 350 2 8
27 96 55 195 30 106 53 207 55 245 2 36 7 126 11 200 13 248 19 301 51 399 90
283 231 764 303 1036 18 66 43 161 56 210 13 50 26 102 29 118 18 95 135 334
319 652 103 177 338 512 490 695 102 122 123 146 203 230 57 59 72 70 68 50
-3 -14 -7 -36 -10 -50 -2 -14 -11 -68 -21 -120 -9 -52 -18 -104 -20 -115 -1
-11 -16 -96 -33 -190 -16 -93 -32 -186 -36 -205 -3 -19 -7 -46 -10 -60 -3 -14
-7 -38 -9 -55 -6 -37 -14 -83 -20 -112 -3 -11 -8 -43 -12 -70 -5 -26 -9 -50
-9 -53 -2 -11 -17 -97 -21 -125 -4 -28 -20 -117 -28 -160 -2 -11 -7 -40 -11
-65 -4 -25 -9 -54 -11 -65 -2 -11 -7 -40 -10 -65 -3 -25 -9 -61 -14 -80 -4
-19 -11 -59 -14 -89 -4 -29 -8 -56 -10 -60 -2 -3 -7 -28 -10 -55 -4 -27 -9
-52 -11 -55 -1 -3 -6 -28 -9 -56 -3 -27 -8 -61 -11 -75 -3 -14 -8 -44 -11 -66
-2 -23 -7 -53 -10 -65 -3 -13 -7 -40 -9 -59 -3 -19 -7 -44 -10 -56 -2 -12 -7
-39 -10 -60 -3 -21 -7 -48 -10 -59 -2 -11 -16 -94 -30 -185 -14 -91 -28 -178
-31 -195 -3 -16 -7 -41 -9 -55 -3 -21 -21 -135 -40 -250 -2 -14 -7 -45 -10
-70 -3 -25 -8 -52 -10 -60 -2 -8 -6 -33 -10 -55 -7 -49 -24 -161 -30 -195 -2
-14 -9 -59 -15 -100 -6 -41 -20 -133 -31 -205 -11 -71 -23 -149 -26 -173 -4
-36 -30 -92 -73 -162 -17 -27 -185 -332 -235 -425 -26 -49 -51 -94 -55 -100
-4 -5 -31 -55 -60 -110 -29 -55 -65 -122 -80 -150 -24 -44 -93 -173 -235 -440
-23 -44 -78 -147 -120 -230 -43 -82 -105 -202 -138 -265 -72 -138 -557 -1108
-617 -1235 -24 -49 -72 -151 -107 -225 -36 -74 -77 -160 -90 -190 -14 -30 -54
-115 -89 -189 -35 -73 -64 -135 -64 -137 0 -2 -22 -51 -50 -109 -28 -58 -50
-108 -50 -111 0 -23 -187 -367 -370 -679 -697 -1192 -1237 -1872 -1545 -1944
-33 -8 -23 -10 61 -9 55 0 127 5 160 9 32 5 75 12 94 14 223 33 533 153 815
313 372 211 808 587 1136 977 19 22 39 45 45 50 60 54 358 457 518 700 177
267 440 709 460 773 4 11 12 25 19 30 9 8 12 -1 13 -36 1 -70 14 -396 19 -482
2 -41 7 -127 10 -190 3 -63 8 -140 10 -170 2 -30 6 -102 10 -160 7 -130 15
-254 20 -300 2 -19 6 -75 10 -125 3 -49 8 -106 10 -125 3 -19 7 -71 10 -115 4
-44 8 -91 10 -105 2 -14 7 -61 11 -105 8 -99 10 -118 18 -175 7 -54 26 -203
30 -245 2 -16 7 -48 10 -70 3 -22 8 -58 11 -80 2 -22 7 -51 10 -65 2 -13 7
-42 10 -65 3 -22 12 -74 20 -115 8 -41 16 -86 19 -100 10 -58 36 -173 40 -177
10 -10 134 246 241 502 56 134 201 507 209 540 2 6 6 17 9 25 51 117 282 903
327 1110 4 19 20 89 35 155 35 153 93 432 100 480 1 11 10 63 19 115 9 52 19
106 21 120 4 21 21 134 41 270 3 19 7 46 9 60 2 14 7 51 10 83 4 32 8 66 10
75 1 9 6 46 9 82 4 36 9 81 11 100 2 19 7 64 10 100 3 36 8 81 10 100 4 33 14
152 20 250 3 42 13 226 20 370 4 83 5 772 0 865 -14 329 -28 531 -50 730 -3
28 -7 71 -10 96 -2 26 -7 69 -10 95 -3 27 -8 65 -10 84 -2 19 -9 73 -16 120
-6 47 -12 94 -14 105 -8 64 -29 195 -47 295 -18 99 -19 139 -14 290 3 96 8
186 10 200 3 14 7 68 11 120 3 52 8 97 9 100 2 3 7 47 10 98 4 51 9 101 10
110 2 9 7 44 10 77 14 122 18 151 21 175 2 14 7 48 10 75 3 28 8 68 11 90 6
52 16 126 19 145 9 51 16 101 20 140 2 25 6 54 9 66 2 12 7 45 11 74 4 29 8
62 11 73 2 11 6 43 9 71 3 28 8 58 10 66 2 8 7 31 9 50 9 66 26 183 31 204 2
12 7 39 10 61 16 112 36 242 40 255 2 8 7 38 10 65 4 28 9 59 10 70 12 72 17
106 25 155 5 30 12 71 15 90 3 19 10 61 16 92 14 77 17 96 24 142 3 21 7 48
10 60 2 12 7 39 11 61 3 22 7 45 8 50 2 6 6 33 10 60 4 28 10 61 12 75 3 14 9
50 14 80 6 30 12 64 14 75 2 11 7 40 11 65 4 25 9 54 11 65 2 11 16 88 30 170
14 83 28 159 31 170 2 11 6 34 8 50 3 17 9 53 15 80 5 28 11 61 14 75 2 14 11
63 20 110 8 47 22 123 30 170 9 47 22 123 31 170 9 47 18 97 20 112 2 15 6 35
9 45 3 10 8 38 11 63 3 25 10 61 15 80 9 37 19 88 24 130 4 32 44 242 56 295
5 22 11 56 15 75 3 19 8 46 10 60 9 45 15 74 25 132 14 78 17 94 30 158 6 30
13 66 15 80 2 14 9 50 15 80 6 30 13 66 16 80 2 14 14 72 25 130 11 58 22 116
25 130 2 14 6 36 9 50 2 14 9 48 14 75 6 28 30 154 55 280 48 246 49 250 71
365 8 41 17 86 19 100 3 14 17 84 32 155 14 72 27 137 29 145 2 8 4 18 4 21 2
11 91 37 96 28 5 -7 111 -380 120 -419 2 -8 13 -49 25 -90 58 -203 118 -431
124 -471 8 -51 9 -278 2 -311 -3 -13 -8 -50 -11 -83 -3 -33 -7 -71 -10 -85 -3
-14 -8 -44 -11 -66 -2 -23 -6 -50 -9 -60 -45 -224 -99 -456 -141 -609 -9 -33
-17 -67 -19 -75 -2 -8 -36 -132 -75 -275 -109 -398 -194 -735 -205 -822 -2
-12 -6 -34 -9 -50 -3 -15 -8 -46 -11 -68 -3 -22 -8 -51 -10 -65 -8 -43 -21
-308 -32 -660 -15 -457 -7 -1852 12 -2150 2 -36 7 -132 10 -215 4 -82 8 -175
10 -205 2 -30 6 -102 10 -160 3 -58 7 -123 9 -145 2 -22 7 -92 11 -155 3 -63
8 -126 10 -140 2 -14 7 -68 10 -120 4 -52 8 -106 10 -120 2 -14 7 -68 10 -120
4 -52 9 -102 10 -111 2 -8 6 -49 10 -90 3 -41 8 -85 10 -99 2 -14 6 -55 10
-92 3 -37 8 -75 10 -86 2 -10 6 -55 10 -98 4 -43 9 -81 10 -84 2 -3 6 -34 10
-70 3 -36 8 -76 10 -90 14 -104 25 -178 30 -220 2 -14 11 -74 20 -135 9 -60
18 -126 21 -145 7 -50 13 -81 19 -110 3 -14 7 -41 9 -60 5 -32 40 -234 51
-289 28 -141 108 -386 182 -554 33 -77 203 -414 253 -502 131 -233 288 -573
353 -765 55 -163 136 -459 161 -590 4 -23 51 -240 62 -285 2 -11 7 -33 10 -50
7 -39 61 -270 74 -315 112 -401 208 -638 342 -852 41 -65 271 -394 310 -443 5
-5 35 -46 68 -90 70 -92 82 -107 211 -270 323 -407 677 -778 955 -1001 88 -70
251 -180 329 -221 71 -37 166 -76 172 -69 2 2 -14 40 -36 85 l-41 80 38 -3
c20 -3 72 -5 114 -5 91 -1 84 9 93 -146 3 -55 8 -125 10 -155 2 -30 6 -95 10
-145 3 -49 7 -117 9 -150 3 -33 7 -103 11 -156 3 -53 7 -116 10 -140 2 -24 7
-98 10 -164 3 -66 8 -138 10 -160 3 -22 7 -78 10 -125 4 -80 8 -143 20 -315 5
-71 9 -132 20 -305 3 -52 8 -115 10 -140 2 -25 6 -90 10 -145 3 -55 8 -134 11
-175 3 -41 7 -104 9 -140 2 -36 6 -99 9 -140 3 -41 8 -111 11 -155 3 -44 8
-109 11 -145 2 -36 6 -99 9 -140 2 -41 6 -110 9 -152 9 -113 15 -211 21 -313
7 -111 14 -213 20 -285 2 -30 7 -102 10 -160 4 -58 8 -125 10 -150 3 -25 7
-90 10 -145 3 -55 8 -122 10 -150 2 -27 7 -95 10 -150 3 -55 8 -120 10 -145 3
-25 7 -94 11 -155 3 -60 7 -126 9 -145 1 -19 5 -89 10 -155 4 -66 8 -136 10
-155 2 -19 6 -82 10 -140 3 -58 7 -121 9 -140 2 -19 7 -87 11 -150 4 -63 8
-116 9 -117 1 -1 15 -4 31 -7 66 -13 92 -18 160 -32 105 -23 149 -32 245 -50
14 -3 66 -13 115 -24 50 -10 101 -21 115 -23 14 -3 36 -8 50 -11 14 -3 36 -8
50 -10 23 -4 90 -18 150 -31 14 -3 59 -12 100 -20 41 -8 84 -16 95 -19 16 -3
234 -48 350 -72 11 -2 36 -7 55 -10 19 -3 71 -14 115 -24 44 -10 96 -21 115
-24 19 -3 99 -19 178 -36 79 -16 158 -32 175 -35 18 -3 39 -8 47 -10 8 -2 26
-6 40 -9 34 -6 365 -74 475 -97 50 -11 124 -26 165 -34 41 -7 154 -30 250 -50
259 -54 230 -55 225 2 -4 48 -10 139 -20 308 -3 50 -8 117 -10 150 -5 68 -15
211 -20 300 -7 124 -16 249 -20 299 -4 45 -11 167 -20 321 -1 28 -5 91 -9 140
-3 50 -9 128 -12 175 -2 47 -7 114 -10 150 -3 36 -7 103 -9 150 -6 103 -14
226 -20 300 -2 30 -7 100 -10 155 -3 55 -7 125 -10 155 -2 30 -7 98 -10 150
-3 52 -8 120 -10 150 -2 30 -7 105 -10 165 -4 61 -8 126 -10 145 -2 19 -6 89
-10 155 -3 66 -8 138 -10 160 -3 22 -7 83 -10 135 -5 94 -12 203 -21 330 -2
36 -7 103 -9 150 -3 47 -8 114 -10 150 -3 36 -7 106 -10 155 -3 50 -8 120 -10
156 l-4 67 32 5 c18 3 46 9 63 12 l32 7 -6 -47 c-3 -32 -1 -46 5 -42 7 5 8 -5
3 -31 -5 -20 -11 -51 -13 -69 l-5 -32 50 35 c57 39 150 84 221 108 43 14 79
20 174 30 80 7 213 -28 283 -74 24 -17 64 -12 95 10 22 16 127 71 130 68 4 -4
36 -153 43 -195 2 -18 7 -34 11 -34 3 -1 29 -2 56 -4 79 -3 215 -23 215 -31 0
-10 -55 -91 -78 -117 l-26 -27 57 19 c31 11 57 18 57 15 0 -3 -22 -39 -50 -80
-27 -41 -49 -74 -47 -74 1 0 30 10 62 21 120 43 262 26 388 -47 64 -38 75 -45
151 -99 197 -141 263 -175 416 -214 14 -3 81 -5 150 -5 113 1 134 5 220 34 52
17 145 53 205 80 197 85 292 110 435 112 75 1 269 -10 279 -17 4 -1 31 -6 62
-9 31 -4 66 -8 77 -11 29 -5 80 -13 137 -21 28 -3 58 -8 67 -9 45 -9 214 -19
303 -18 209 3 371 2 405 -2 199 -21 616 -21 651 1 7 4 -7 89 -16 105 -4 5 0
12 9 15 8 3 13 11 10 17 -4 11 -13 77 -10 77 0 0 34 -7 74 -15 83 -18 161 -42
180 -58 7 -5 15 -7 18 -4 4 3 7 53 7 111 0 58 2 106 3 106 1 0 46 -9 100 -20
55 -12 123 -23 153 -26 l54 -6 -6 28 c-4 16 -11 46 -16 67 -7 30 -6 37 6 37
15 0 15 2 -3 69 -7 23 -6 24 42 17 77 -12 137 -33 314 -114 91 -41 194 -85
229 -99 59 -22 181 -55 181 -48 0 1 -7 22 -15 45 -19 53 -19 80 -1 80 11 0 10
12 -4 64 -21 73 -31 138 -21 134 115 -56 295 -153 318 -172 17 -14 33 -26 36
-26 3 0 15 33 27 72 50 164 147 266 305 319 22 7 42 14 45 14 7 2 123 19 132
19 16 2 20 19 25 93 2 43 5 90 6 106 2 20 18 39 62 72 33 25 71 48 85 52 14 3
75 28 137 54 62 27 134 51 160 55 59 7 61 10 65 58 2 42 10 47 97 67 47 11
167 13 211 4 14 -3 50 -9 80 -15 30 -5 85 -16 121 -24 100 -22 188 -27 234
-14 22 6 45 11 51 10 12 -2 16 31 15 110 0 21 -10 65 -21 98 -11 34 -18 66
-14 72 14 22 84 -3 294 -105 36 -17 79 -42 97 -55 l31 -23 41 108 c51 134 53
138 83 136 19 -1 33 14 75 75 28 43 75 118 103 167 34 61 57 92 73 96 18 4 22
12 22 42 0 42 2 43 51 22 57 -23 139 -31 290 -26 33 1 37 9 51 101 7 45 9 47
35 24 13 -10 17 -12 11 -4 -7 9 -14 27 -16 41 l-5 24 105 -3 c57 -2 133 -1
170 3 l65 7 -48 33 c-64 43 -153 138 -150 159 2 16 54 41 214 105 l43 17 -21
26 c-19 25 -60 111 -60 128 0 4 20 13 45 19 l45 11 -1 48 c-1 43 6 117 16 167
2 11 4 28 4 37 1 10 35 37 88 68 94 55 111 57 207 24 52 -19 59 -18 53 8 -6
24 -12 69 -22 173 -11 106 -23 164 -50 228 -6 15 -1 14 41 -7 27 -13 85 -36
128 -50 43 -15 88 -32 98 -37 17 -9 19 -8 15 8 -5 16 -14 54 -24 103 -1 8 -5
33 -8 55 -3 22 -10 55 -15 72 -8 31 -7 33 13 28 44 -10 83 -15 152 -20 39 -3
80 -8 92 -10 27 -6 30 -1 37 60 4 28 9 66 12 85 3 19 7 62 9 94 3 33 6 60 7
61 2 2 53 28 113 59 276 140 563 302 737 417 43 28 44 30 22 113 -9 33 -17 70
-19 81 -1 11 -8 43 -15 70 -11 47 -44 220 -56 294 -3 18 -7 42 -9 51 -20 105
-20 104 33 144 93 72 150 202 177 411 3 28 8 64 10 80 2 17 6 64 10 105 8 100
14 151 27 235 15 101 20 122 43 190 24 71 51 125 79 159 l23 30 -38 74 c-35
69 -62 160 -76 256 -8 56 -8 226 0 307 26 270 140 540 283 668 l46 41 -41 47
c-48 54 -93 144 -111 223 -20 86 -18 262 5 370 3 14 8 39 11 55 3 17 23 102
45 190 22 88 42 171 45 185 3 14 11 57 19 96 47 231 32 392 -48 518 -23 36
-28 51 -18 54 7 2 34 23 60 46 26 23 65 56 87 72 21 16 41 31 44 34 14 15 61
40 75 40 19 0 19 14 0 30 -27 22 -105 156 -127 216 -40 114 -52 187 -51 321 0
81 4 97 27 137 22 38 100 106 121 106 15 0 96 63 106 82 6 12 12 47 13 77 1
57 -3 75 -50 236 -22 77 -25 102 -20 170 3 44 8 89 10 101 2 11 7 47 10 80 4
32 9 68 11 79 6 28 16 109 30 255 4 41 9 84 11 95 10 48 5 284 -7 330 -18 73
-58 144 -166 290 -212 290 -224 374 -95 680 78 186 113 274 127 322 15 51 17
175 3 235 -5 24 -11 50 -13 59 -4 22 -38 136 -90 304 -24 77 -48 165 -54 195
-6 30 -14 66 -17 80 -7 26 -11 834 -6 932 l4 57 86 58 c185 122 382 282 560
455 57 55 105 99 107 96 2 -2 7 -19 10 -38 21 -126 164 -710 240 -985 163
-592 443 -1432 575 -1730 10 -22 48 -110 85 -195 54 -124 224 -471 265 -540
51 -87 126 -217 129 -225 2 -5 81 -127 176 -270 95 -143 185 -282 200 -310 15
-27 31 -55 36 -61 18 -22 103 -185 213 -409 116 -236 132 -268 209 -440 25
-55 59 -131 77 -170 17 -38 50 -110 73 -160 70 -154 237 -484 310 -615 65
-116 109 -189 274 -448 111 -177 436 -710 477 -784 13 -24 51 -92 86 -153 218
-385 671 -1274 878 -1725 16 -36 56 -119 87 -185 31 -66 89 -190 127 -275 39
-85 86 -189 105 -230 144 -312 276 -626 339 -809 66 -189 129 -384 139 -431 2
-8 11 -44 20 -80 18 -69 22 -85 31 -140 3 -19 10 -48 14 -65 5 -16 11 -48 14
-70 3 -22 9 -62 15 -90 5 -27 12 -74 16 -104 4 -30 8 -63 11 -74 2 -10 6 -45
9 -76 3 -31 8 -69 10 -86 2 -16 6 -59 10 -95 3 -36 7 -87 10 -115 25 -266 25
-889 0 -1245 -2 -36 -7 -103 -10 -150 -3 -47 -8 -103 -10 -125 -5 -43 -14
-141 -20 -215 -3 -25 -7 -63 -9 -85 -3 -22 -8 -67 -12 -100 -3 -33 -7 -67 -9
-75 -1 -8 -6 -44 -10 -80 -4 -36 -9 -73 -11 -84 -2 -10 -6 -44 -9 -75 -4 -31
-8 -63 -10 -71 -2 -8 -7 -37 -11 -65 -3 -27 -8 -59 -10 -70 -2 -11 -7 -38 -9
-60 -5 -33 -49 -300 -60 -355 -2 -8 -17 -89 -35 -180 -18 -91 -34 -176 -37
-190 -2 -14 -10 -53 -18 -86 -8 -34 -16 -73 -19 -85 -3 -13 -9 -46 -15 -74 -5
-27 -14 -62 -20 -78 -6 -15 -9 -27 -6 -27 2 0 -1 -15 -6 -32 -5 -18 -11 -44
-14 -58 -3 -14 -18 -74 -33 -133 -17 -65 -25 -110 -19 -114 5 -3 26 -6 46 -6
198 0 456 452 739 1298 76 227 199 626 216 700 1 6 10 35 19 65 17 59 57 205
62 230 2 8 4 15 5 15 1 0 3 7 5 15 2 8 29 114 60 235 32 121 58 226 58 233 1
23 13 -2 67 -138 29 -74 61 -153 71 -175 9 -22 88 -218 174 -435 86 -217 161
-404 166 -415 10 -24 125 -318 256 -655 52 -135 105 -272 118 -305 48 -122
269 -705 331 -875 36 -96 69 -184 73 -195 5 -11 35 -90 66 -175 31 -85 69
-189 84 -230 l28 -75 57 113 c56 112 92 199 126 302 33 104 49 155 54 180 3
14 12 56 21 93 17 77 19 86 39 217 9 52 18 124 21 160 3 35 7 76 10 90 20 127
20 697 0 900 -2 19 -6 71 -10 115 -6 76 -10 109 -20 200 -2 22 -7 67 -10 99
-4 33 -8 67 -10 75 -1 9 -6 41 -10 71 -3 30 -8 67 -11 81 -2 15 -6 47 -9 70
-3 24 -10 71 -16 104 -6 33 -12 71 -14 85 -3 21 -17 103 -40 235 -3 17 -13 66
-21 110 -8 44 -17 91 -20 105 -3 14 -14 70 -25 125 -12 55 -23 108 -25 118 -2
10 -5 26 -8 35 -3 9 -8 33 -11 52 -7 41 -49 224 -107 470 -23 96 -43 180 -44
185 -2 10 -21 86 -28 115 -11 41 -29 113 -47 185 -11 44 -21 87 -24 95 -2 8
-16 60 -30 115 -14 55 -35 133 -46 173 -11 40 -22 81 -24 91 -2 10 -24 94 -48
187 -88 329 -186 706 -193 744 -3 14 -8 34 -11 45 -4 11 -8 25 -9 30 -2 13
-70 305 -95 415 -11 47 -43 175 -70 285 -58 230 -58 229 -63 252 -19 83 -115
438 -187 688 -49 172 -53 191 -64 280 -4 28 -8 61 -10 75 -2 14 -7 48 -10 75
-3 28 -10 75 -15 105 -5 30 -12 75 -15 100 -3 25 -8 52 -10 60 -2 8 -6 38 -10
65 -3 28 -8 57 -10 65 -5 18 -11 48 -31 170 -8 52 -20 109 -24 125 -5 17 -12
46 -15 65 -3 19 -10 53 -15 75 -5 22 -12 56 -15 75 -8 47 -121 506 -146 595
-11 39 -26 93 -34 120 -9 28 -17 59 -19 70 -35 171 -360 1097 -477 1360 -5 11
-32 74 -59 140 -118 277 -330 712 -448 920 -48 84 -65 106 -161 210 -59 64
-231 281 -307 388 -68 95 -245 368 -253 391 -2 6 -15 28 -28 48 -37 60 -186
361 -246 498 -130 296 -283 770 -333 1030 -3 14 -15 79 -29 145 -13 66 -28
156 -35 200 -6 44 -13 91 -16 105 -4 23 -18 140 -29 250 -14 128 -30 510 -21
510 2 0 40 -53 83 -117 43 -65 81 -119 85 -121 5 -2 8 -7 8 -12 0 -12 462
-699 1034 -1540 47 -69 96 -141 110 -160 13 -19 95 -138 182 -265 86 -126 178
-259 202 -295 25 -36 75 -108 111 -160 36 -52 151 -216 255 -365 l189 -270 43
-165 c23 -91 47 -177 53 -193 6 -15 9 -27 7 -27 -2 0 4 -27 14 -60 10 -33 16
-60 14 -60 -2 0 1 -12 7 -27 5 -15 26 -88 45 -162 19 -75 39 -149 45 -166 5
-16 21 -73 34 -125 14 -52 32 -117 40 -145 28 -97 94 -331 109 -385 31 -115
177 -614 241 -825 37 -121 73 -240 80 -265 12 -43 108 -349 118 -380 3 -8 33
-103 67 -210 67 -212 270 -822 373 -1125 55 -161 117 -369 131 -441 2 -10 12
-48 21 -84 9 -36 18 -72 20 -80 2 -8 17 -72 34 -143 17 -70 33 -141 36 -159 3
-17 8 -34 10 -38 2 -3 6 -17 9 -31 2 -13 16 -76 30 -140 25 -115 63 -300 72
-349 3 -14 11 -56 19 -95 8 -38 17 -87 21 -109 3 -21 8 -48 10 -60 2 -11 11
-64 19 -116 9 -52 18 -106 20 -120 3 -14 7 -47 10 -75 3 -27 8 -57 10 -65 2
-8 7 -40 10 -70 3 -30 8 -73 11 -95 4 -22 7 -56 9 -75 2 -19 7 -71 11 -115 10
-103 11 -431 2 -515 -14 -119 -51 -229 -97 -285 l-16 -20 25 20 c160 128 359
419 473 690 21 50 42 99 47 110 38 86 104 316 139 480 28 134 34 169 46 252 3
21 8 54 11 73 2 19 7 58 10 85 2 28 7 66 9 85 22 174 23 821 1 936 -2 11 -7
62 -11 114 -4 52 -9 104 -11 114 -2 11 -6 47 -9 80 -3 34 -7 68 -10 76 -2 8
-6 38 -10 65 -7 54 -14 105 -21 138 -2 12 -6 39 -9 62 -3 22 -8 47 -10 55 -2
8 -7 35 -10 60 -4 24 -8 47 -10 50 -2 3 -6 26 -10 50 -3 25 -11 65 -17 90 -5
25 -12 56 -14 68 -4 19 -52 233 -69 302 -28 119 -78 310 -85 327 -5 13 -7 23
-3 23 3 0 67 -60 142 -134 146 -144 179 -175 377 -362 157 -148 181 -170 404
-374 117 -106 293 -263 430 -381 116 -100 324 -273 464 -386 132 -107 473
-349 480 -342 3 2 -11 54 -31 114 -168 527 -410 1084 -736 1696 -252 475 -690
1153 -1009 1564 -151 194 -364 455 -499 610 -309 356 -803 852 -1104 1106 -22
19 -47 41 -55 49 -8 9 -69 60 -135 115 -213 177 -292 240 -470 373 -77 58
-161 126 -186 151 -36 37 -165 188 -278 326 -131 161 -523 687 -715 960 -8 11
-43 61 -78 110 -36 50 -87 122 -114 161 -320 463 -451 653 -577 839 -223 329
-912 1366 -927 1395 -7 14 -17 27 -21 30 -4 3 -14 17 -21 30 -8 14 -58 93
-112 175 -127 192 -228 347 -301 460 -32 50 -86 133 -120 185 -53 82 -644
1001 -726 1130 -16 25 -80 125 -142 224 l-114 179 24 44 25 43 36 -22 c21 -12
49 -30 64 -40 14 -10 28 -18 30 -18 3 0 64 -36 137 -80 73 -44 134 -80 135
-80 1 0 73 -43 160 -95 87 -52 160 -95 162 -95 10 0 98 -61 131 -91 139 -126
256 -316 499 -809 292 -591 281 -572 461 -819 18 -24 65 -86 81 -106 4 -5 21
-28 37 -50 17 -22 32 -42 35 -45 3 -3 41 -50 85 -105 44 -55 90 -111 102 -125
11 -14 54 -63 94 -110 79 -93 286 -326 334 -376 17 -17 86 -92 155 -165 174
-186 513 -530 1235 -1254 548 -549 751 -748 1009 -986 38 -35 81 -75 96 -89
37 -35 208 -190 249 -226 18 -16 43 -38 55 -49 68 -62 218 -193 391 -340 57
-49 382 -315 440 -361 17 -13 66 -52 110 -87 140 -111 424 -320 610 -450 99
-69 185 -131 192 -136 7 -6 14 -11 16 -11 2 0 47 -28 98 -63 864 -580 1857
-1052 2729 -1297 80 -22 161 -45 180 -50 103 -30 504 -117 620 -135 14 -2 63
-11 110 -20 47 -8 99 -17 115 -20 44 -6 106 -16 140 -22 17 -3 44 -6 60 -8 17
-2 50 -7 75 -10 25 -4 54 -8 65 -10 51 -7 128 -17 250 -30 81 -10 108 -12 190
-20 39 -3 88 -8 110 -10 214 -23 776 -23 904 0 9 1 43 6 76 10 32 4 68 9 80
11 11 2 36 7 55 10 87 15 308 90 297 101 -4 4 -101 41 -122 47 -5 2 -19 7 -30
11 -11 5 -101 39 -200 77 -175 68 -309 121 -350 139 -11 4 -103 44 -205 87
-692 295 -1199 588 -1595 919 -148 123 -352 332 -530 544 -44 52 -86 101 -95
109 -8 8 -38 42 -65 75 -72 86 -126 144 -250 269 -161 161 -158 160 -505 429
-58 45 -114 89 -125 99 -11 9 -139 112 -285 229 -146 117 -304 244 -351 283
-47 39 -105 87 -129 106 -45 36 -111 91 -120 100 -3 3 -39 32 -80 65 -41 32
-77 62 -80 65 -4 5 -292 242 -364 300 -10 8 -23 20 -30 25 -6 6 -60 51 -121
99 -60 49 -114 94 -120 100 -5 6 -32 29 -60 51 -27 21 -52 42 -55 45 -5 5
-144 119 -184 150 -11 8 -35 29 -55 45 -20 17 -74 62 -121 100 -108 88 -100
82 -200 161 -47 38 -87 70 -90 73 -3 4 -25 22 -50 41 -25 19 -52 40 -60 47 -8
7 -67 53 -130 103 -63 50 -122 96 -130 103 -149 120 -776 596 -925 702 -31 22
-64 46 -73 53 -29 22 -203 145 -312 221 -236 164 -815 542 -927 606 -58 33
-151 90 -165 103 -10 8 -18 11 -18 7 0 -4 -8 -1 -17 7 -10 9 -52 35 -93 58
-41 23 -91 52 -110 63 -35 20 -145 82 -250 140 -247 137 -843 433 -1031 512
-32 14 -168 87 -301 164 -134 76 -263 149 -288 163 -85 48 -416 236 -690 392
-251 143 -292 164 -480 233 -228 84 -380 140 -425 155 -16 5 -39 13 -50 18
-11 5 -69 27 -129 49 -60 22 -111 42 -113 45 -4 4 77 172 118 246 19 34 109
233 158 350 29 69 57 134 62 145 40 88 209 594 234 704 2 9 11 41 20 71 8 30
18 71 21 90 3 19 8 38 10 41 3 6 20 81 40 174 11 54 25 123 29 145 6 28 31
183 40 245 4 22 8 51 10 65 2 14 7 48 10 75 4 28 8 61 10 75 4 23 12 106 20
190 15 159 20 311 20 595 0 403 -11 573 -60 940 -2 17 -7 57 -11 90 -3 33 -8
67 -9 75 -2 8 -6 44 -10 80 -4 36 -9 73 -10 82 -2 9 -7 48 -10 85 -4 37 -8 75
-10 83 -2 8 -7 38 -10 65 -3 28 -8 68 -10 90 -3 22 -7 60 -10 85 -3 25 -7 61
-10 80 -2 19 -7 58 -11 85 -3 28 -9 54 -12 59 -3 5 0 6 6 2 7 -4 391 -512 854
-1129 463 -617 848 -1128 855 -1135 7 -7 13 -17 13 -20 0 -4 10 -19 23 -32 12
-14 33 -41 47 -60 13 -19 28 -39 32 -45 5 -5 32 -41 61 -80 28 -38 58 -76 65
-83 6 -7 12 -17 12 -20 0 -4 10 -18 23 -32 37 -41 87 -113 87 -126 0 -54 282
-831 379 -1046 11 -24 44 -99 74 -168 122 -278 336 -708 414 -832 12 -21 23
-40 23 -43 0 -3 16 -31 35 -61 19 -30 35 -56 35 -59 0 -8 135 -227 196 -319
10 -16 24 -36 29 -45 25 -39 87 -130 120 -176 19 -27 48 -69 65 -93 16 -23 34
-48 40 -55 12 -14 54 -69 90 -118 147 -198 550 -629 715 -765 33 -27 65 -54
70 -60 20 -23 223 -173 325 -242 327 -218 548 -316 1105 -490 72 -22 216 -68
320 -101 491 -155 1313 -415 1460 -461 50 -15 109 -35 133 -43 23 -8 42 -11
42 -7 0 6 -38 42 -150 140 -35 30 -153 136 -174 155 -12 11 -57 52 -100 90
-43 39 -88 79 -100 90 -13 11 -65 58 -116 105 -52 47 -112 102 -133 123 -22
20 -56 52 -76 69 -20 17 -85 76 -145 132 -60 56 -123 114 -140 129 -31 29
-218 203 -287 267 -453 424 -1040 1004 -1264 1251 -166 181 -168 186 -15 34
114 -113 101 -106 245 -120 71 -6 140 -15 175 -21 14 -2 45 -7 70 -10 113 -15
448 -75 555 -100 11 -2 31 -6 45 -9 48 -9 66 -13 150 -35 161 -40 345 -91 405
-112 33 -11 67 -21 75 -23 48 -11 345 -122 458 -171 17 -8 49 -21 70 -30 308
-134 655 -357 866 -557 85 -80 91 -84 120 -76 51 14 76 51 72 107 -10 126
-147 321 -430 609 -139 143 -140 143 -340 262 -207 121 -436 255 -516 299 -25
14 -79 44 -120 67 -69 39 -188 104 -395 216 -349 189 -811 416 -1110 546 -82
35 -164 71 -181 79 -66 29 -320 126 -408 155 -283 94 -435 129 -638 144 l-47
3 44 -86 c24 -48 66 -124 93 -169 28 -46 49 -83 47 -83 -1 0 -40 44 -86 97
-46 54 -96 111 -111 128 -14 16 -35 39 -45 51 -195 225 -651 680 -832 831 -19
15 -53 44 -75 64 -23 19 -59 49 -81 65 -22 16 -42 31 -45 34 -11 13 -134 103
-197 146 -310 210 -549 308 -783 323 -17 1 -13 11 32 84 28 45 57 89 65 98 14
17 18 55 5 61 -4 2 -90 118 -192 258 -101 140 -211 293 -245 339 -33 46 -77
106 -97 135 -21 28 -64 87 -95 132 -32 45 -150 208 -263 363 -113 155 -215
297 -228 314 -72 102 -140 198 -163 227 -11 14 -97 133 -193 265 -95 132 -311
431 -480 665 -169 234 -312 432 -319 440 -7 8 -20 27 -29 41 l-17 26 57 39
c119 82 286 236 404 374 311 365 546 891 633 1420 3 19 8 47 10 63 3 15 7 39
10 55 7 44 15 113 20 167 2 28 7 86 12 130 4 44 7 194 8 333 0 209 2 251 14
247 7 -3 61 -18 120 -34 199 -55 366 -102 396 -111 17 -6 113 -35 215 -66 607
-181 876 -282 1245 -466 184 -92 481 -251 700 -373 192 -108 481 -254 660
-334 147 -67 310 -133 360 -147 6 -1 51 -17 100 -34 50 -17 113 -38 140 -45
123 -34 171 -47 180 -49 6 -2 28 -8 50 -14 22 -6 55 -14 74 -17 19 -3 37 -8
41 -10 8 -5 143 -36 345 -80 49 -10 183 -36 214 -41 18 -3 43 -8 55 -10 44 -8
133 -23 171 -29 23 -3 50 -7 60 -9 34 -6 165 -24 220 -31 17 -2 80 -8 140 -14
61 -6 130 -13 155 -16 264 -27 955 -28 1190 0 19 2 64 7 100 10 36 4 92 10
125 15 33 5 84 12 114 16 117 14 119 8 -50 129 -85 60 -156 112 -159 115 -5 6
-119 85 -518 358 -61 42 -120 82 -130 87 -9 6 -53 35 -97 65 -44 30 -84 57
-90 60 -5 3 -37 23 -70 44 -400 262 -514 334 -891 564 -93 57 -176 108 -184
113 -55 34 -233 139 -236 139 -2 0 -21 11 -42 24 -55 35 -376 219 -497 286
-83 45 -134 74 -175 97 -19 11 -66 37 -105 58 -38 20 -101 55 -140 76 -336
183 -1027 526 -1390 689 -22 10 -71 32 -110 50 -38 17 -171 74 -295 127 -124
52 -234 99 -245 104 -236 107 -1081 403 -1400 489 -300 82 -335 90 -429 96
-165 10 -199 12 -249 13 -54 1 -47 -10 -97 146 -32 99 -138 398 -179 505 l-21
55 97 -100 c86 -89 98 -98 56 -45 -7 8 -48 65 -92 125 -44 61 -88 121 -99 135
-10 14 -45 88 -77 165 -31 77 -66 158 -76 180 -9 22 -56 125 -103 230 -47 104
-86 195 -86 202 0 22 171 -95 285 -196 28 -24 129 -119 225 -211 222 -213 238
-228 336 -305 76 -61 224 -158 230 -152 2 2 -3 26 -10 55 -8 29 -12 52 -10 52
2 0 -10 39 -27 87 -68 191 -170 372 -384 678 -58 83 -108 158 -111 168 -4 9
-10 17 -14 17 -4 0 -12 10 -19 23 -6 12 -19 34 -29 49 -88 137 -112 180 -96
174 9 -3 59 -37 110 -74 102 -73 313 -226 329 -239 18 -15 160 -108 170 -112
6 -2 21 -12 35 -21 68 -46 245 -128 255 -118 7 7 -69 131 -133 218 -31 41
-184 201 -340 356 l-285 281 31 44 c49 69 58 79 72 79 13 0 134 -64 160 -84
62 -49 64 -38 5 22 -116 115 -126 127 -119 145 3 10 11 17 16 17 18 0 185 -77
255 -118 94 -55 318 -216 363 -262 3 -3 57 -51 121 -107 63 -56 133 -119 155
-140 218 -208 568 -502 582 -489 7 7 -111 175 -193 276 -34 41 -277 282 -328
325 -26 22 -62 54 -81 70 -18 17 -50 44 -71 60 -21 17 -43 35 -49 40 -6 6 -65
55 -131 109 -222 184 -486 431 -485 453 1 24 29 43 57 38 70 -12 175 -50 275
-100 125 -63 123 -62 423 -260 127 -84 252 -164 278 -179 138 -76 232 -93 311
-55 153 72 104 217 -145 429 -35 30 -66 58 -69 61 -15 17 -222 164 -364 257
-176 116 -204 133 -373 238 -62 38 -113 73 -113 79 0 5 13 35 28 65 l27 55 96
-1 c146 -3 344 -34 649 -104 112 -26 202 -45 340 -74 8 -2 35 -7 60 -11 25 -4
55 -9 68 -11 29 -6 28 0 -10 43 -177 197 -446 384 -921 641 -84 45 -88 48 -82
76 3 16 7 31 8 33 2 2 26 -1 53 -6 263 -50 665 -14 919 82 34 13 36 16 15 17
-102 6 -231 15 -360 25 -168 14 -390 60 -505 107 -67 26 -65 20 -46 133 17 95
24 147 23 167 0 9 8 18 18 21 25 6 223 1 280 -8 25 -4 42 -4 39 -1 -5 5 -99
26 -229 49 -102 19 -99 17 -95 45 2 15 4 32 4 39 1 9 38 22 116 38 11 2 70 15
132 29 61 14 114 26 117 26 3 0 6 3 6 8 0 4 -33 8 -72 9 -40 0 -121 2 -180 4
-105 4 -108 4 -108 26 0 18 6 23 25 24 14 1 28 2 33 3 4 1 28 5 53 9 197 32
406 89 584 159 55 22 102 42 105 45 3 3 -22 3 -55 -1 -186 -19 -500 -25 -605
-12 -19 2 -50 5 -68 5 l-33 1 7 53 c3 28 11 57 18 63 6 7 70 26 141 44 150 37
326 93 610 192 110 39 310 108 445 154 135 47 232 82 215 80 -16 -3 -57 -10
-90 -15 -70 -12 -112 -18 -180 -26 -27 -4 -61 -8 -75 -11 -14 -2 -54 -6 -90
-9 -36 -3 -76 -8 -90 -10 -24 -5 -64 -7 -275 -20 -49 -3 -166 -6 -260 -5 -147
0 -202 2 -298 9 -15 1 -17 10 -16 60 2 71 7 80 45 87 24 4 120 22 199 38 11 3
43 10 70 16 58 14 80 18 115 25 14 3 41 10 60 15 19 6 46 13 60 16 65 12 335
111 425 154 109 53 186 99 170 101 -20 2 -127 -3 -147 -6 -11 -2 -46 -7 -78
-10 -33 -3 -73 -10 -90 -15 -17 -5 -34 -9 -38 -9 -23 -3 -92 -17 -202 -43
-229 -53 -420 -91 -527 -104 l-53 -6 0 75 0 74 60 17 c33 9 99 30 147 47 48
16 95 31 103 33 95 23 450 207 450 233 0 5 -111 -5 -140 -12 -8 -2 -44 -7 -80
-10 -36 -4 -72 -8 -80 -10 -13 -2 -115 -12 -210 -20 -19 -2 -88 -6 -152 -10
l-118 -7 0 35 c0 33 2 35 48 46 78 19 305 91 335 106 16 8 33 15 39 15 17 0
212 100 232 119 18 18 17 19 -25 16 -24 -2 -80 -6 -124 -9 -44 -3 -96 -8 -115
-12 -58 -9 -193 -33 -220 -39 -14 -3 -42 -7 -62 -10 -20 -3 -56 -9 -80 -14
-49 -11 -54 -8 -61 34 -3 17 -8 46 -12 66 l-7 35 129 44 c248 84 493 184 493
201 0 5 -6 7 -12 4 -7 -2 -45 -6 -84 -10 -39 -3 -81 -8 -94 -10 -12 -2 -41 -7
-64 -9 -22 -3 -64 -10 -93 -15 -29 -6 -74 -13 -100 -17 -26 -3 -50 -7 -53 -9
-5 -3 -101 -17 -133 -19 -13 -1 -23 10 -32 37 -7 20 -11 37 -8 37 2 0 -1 9 -7
19 -8 16 -6 21 13 27 12 4 29 8 37 9 72 8 331 77 490 132 125 43 322 132 315
144 -8 12 -130 44 -215 55 -37 5 -376 4 -445 -1 -33 -3 -117 -8 -187 -11
l-126 -6 -46 97 c-25 54 -46 101 -46 105 0 5 24 13 53 19 117 24 200 31 427
36 221 5 379 13 430 22 19 3 41 6 48 6 27 1 9 15 -65 52 -121 59 -240 97 -348
110 -27 3 -61 8 -75 11 -27 6 -277 6 -325 -1 -16 -2 -57 -6 -90 -10 -33 -3
-71 -8 -84 -10 -13 -2 -43 -7 -66 -11 l-42 -6 -52 69 -52 68 33 14 c18 7 138
43 266 79 127 37 232 69 232 72 0 9 -112 49 -184 65 -128 30 -322 38 -505 22
l-84 -7 -56 43 c-64 51 -155 110 -223 147 -26 14 -47 29 -48 34 -2 11 128 69
250 112 106 36 112 42 21 18 -34 -8 -69 -17 -78 -19 -10 -2 -52 -14 -93 -25
-205 -57 -182 -55 -257 -25 -37 15 -89 34 -115 42 -26 7 -48 17 -48 21 0 4 22
23 48 42 92 68 265 250 238 250 -2 0 -32 7 -66 16 -116 29 -254 15 -396 -42
-78 -31 -261 -125 -314 -160 -32 -22 -44 -24 -175 -24 l-140 0 57 54 c32 29
75 68 97 85 22 18 50 42 63 53 13 11 43 37 68 57 25 20 50 41 56 46 6 6 34 30
63 54 59 50 55 61 -23 56 -203 -13 -401 -113 -722 -365 l-111 -88 -74 -7 c-41
-4 -86 -9 -101 -11 -16 -1 -28 -1 -28 3 0 3 11 28 25 55 49 97 132 203 260
333 127 129 160 159 318 299 43 38 76 70 74 73 -7 7 -149 -48 -232 -90 -136
-67 -259 -154 -480 -336 -77 -63 -142 -118 -145 -121 -28 -34 -340 -260 -358
-260 -11 0 0 66 23 135 44 129 119 239 257 376 90 90 91 94 13 74 -47 -12
-136 -61 -179 -97 -86 -73 -186 -237 -261 -425 -39 -98 -40 -99 -120 -108 -27
-3 -61 -8 -75 -10 -14 -3 -47 -7 -75 -11 -27 -3 -70 -10 -95 -14 -25 -5 -46
-7 -47 -6 -6 5 30 114 59 180 36 82 111 213 183 316 73 106 72 104 34 84 -152
-78 -310 -262 -440 -509 -29 -55 -53 -101 -54 -103 -2 -2 -300 -62 -310 -62
-2 0 -3 6 0 13 12 39 68 195 75 212 44 97 99 258 120 350 14 59 21 217 11 234
-5 7 -24 -5 -54 -35 -108 -104 -177 -247 -232 -479 -27 -116 -33 -136 -60
-230 -15 -49 -31 -95 -36 -101 -6 -7 -25 -15 -44 -18 -20 -4 -70 -18 -112 -31
-43 -14 -79 -25 -80 -25 -8 0 -1 80 13 146 14 68 41 150 94 284 48 119 91 236
96 259 20 97 22 144 10 215 -6 40 -35 96 -48 96 -4 0 -45 -37 -92 -82 -117
-116 -197 -246 -250 -408 -27 -81 -72 -254 -81 -310 -6 -31 -42 -222 -50 -260
-2 -8 -4 -20 -4 -27 -1 -6 -51 -28 -112 -48 -90 -30 -113 -35 -120 -24 -4 7
-13 45 -19 84 -6 38 -14 81 -16 95 -6 33 -5 274 1 325 9 78 16 132 30 225 9
56 11 67 20 105 5 17 5 28 2 25 -6 -6 -57 -129 -62 -150 -2 -8 -12 -40 -24
-70 -19 -51 -67 -213 -76 -256 -2 -10 -10 -48 -19 -84 -8 -36 -18 -81 -21
-100 -3 -19 -10 -57 -15 -85 -5 -27 -12 -77 -17 -110 -4 -33 -8 -63 -9 -67 -1
-5 -2 -15 -3 -23 -1 -13 -30 -30 -66 -39 -5 -2 -19 -7 -30 -11 -11 -5 -41 -16
-68 -27 l-48 -18 -10 28 c-6 15 -20 70 -31 122 -34 159 -28 353 17 570 3 14 2
18 -1 10 -4 -8 -13 -28 -20 -45 -19 -42 -62 -210 -69 -270 -4 -27 -8 -57 -10
-65 -6 -21 -14 -146 -20 -284 -3 -66 -6 -121 -8 -122 -1 -1 -78 -34 -171 -73
-167 -70 -185 -73 -186 -36 0 6 -5 42 -10 80 -17 119 -19 138 -25 208 -3 37
-7 95 -10 130 -3 34 -7 131 -10 216 -3 85 -7 157 -10 160 -11 11 -143 -137
-179 -202 -42 -74 -82 -181 -92 -243 -3 -21 -8 -42 -10 -45 -21 -35 -21 -377
0 -503 1 -9 -112 -76 -130 -76 -8 0 -55 160 -68 235 -6 32 -17 116 -23 165 -7
62 -9 588 -3 683 9 131 2 125 -64 -61 -64 -178 -120 -419 -142 -607 -3 -33 -8
-68 -10 -78 -8 -47 -18 -269 -17 -410 l1 -157 -34 -41 c-41 -50 -96 -145 -129
-227 -50 -122 -52 -269 -6 -385 6 -16 11 -30 11 -32 0 -4 -53 16 -95 35 -175
80 -273 129 -335 167 -99 62 -166 113 -149 114 8 0 23 2 34 5 11 2 41 7 68 11
26 3 47 9 47 14 0 25 -163 127 -241 151 -27 8 -39 17 -39 30 0 29 4 33 25 31
16 -2 15 0 -5 9 -14 7 -26 13 -28 14 -4 2 -7 20 -27 162 -9 62 -18 121 -19
130 -2 9 -7 39 -10 65 -4 27 -9 56 -11 65 -1 10 -6 42 -9 73 -4 31 -8 66 -10
76 -3 11 -7 44 -11 73 -4 29 -8 60 -10 69 -1 9 -6 39 -9 66 -4 28 -9 61 -11
75 -2 14 -6 48 -10 75 -3 28 -13 97 -21 155 -8 58 -17 121 -19 140 -2 19 -9
71 -15 115 -6 44 -13 103 -17 130 -5 43 -9 73 -12 83 -1 2 -583 -288 -590
-294 -3 -3 17 -111 43 -242 26 -130 49 -248 51 -262 2 -14 11 -59 20 -100 9
-41 18 -87 20 -102 5 -37 64 -328 71 -352 5 -16 2 -17 -37 -11 -73 11 -251 14
-296 6 -64 -12 -52 3 19 25 42 12 93 19 155 19 51 0 93 2 93 5 0 3 -29 26 -63
51 -154 115 -286 153 -527 152 -58 0 -157 -4 -220 -8 -155 -10 -300 -12 -300
-4 0 9 64 39 98 46 38 8 121 8 157 0 23 -5 19 -1 -15 15 -53 25 -219 74 -281
83 -24 4 -46 8 -49 10 -28 17 -282 26 -381 14 -80 -10 -169 -40 -222 -75 l-40
-26 5 39 c16 116 120 214 275 260 35 10 63 20 63 23 0 9 -406 -4 -495 -15
-191 -24 -335 -65 -526 -148 l-37 -16 8 32 c17 78 82 149 155 170 45 13 -165
-7 -255 -24 -30 -6 -68 -13 -85 -15 -121 -20 -460 -144 -600 -220 -93 -50 -99
-53 -103 -50 -4 5 32 69 70 123 36 54 121 139 162 164 45 27 24 23 -36 -7 -50
-25 -201 -78 -358 -124 -220 -66 -380 -143 -499 -243 -18 -16 -35 -26 -37 -24
-9 8 19 113 41 157 13 25 43 67 66 95 l44 50 -40 -31 c-93 -72 -261 -173 -420
-252 -112 -56 -354 -162 -370 -162 -9 0 2 61 20 102 22 53 90 123 150 154 30
16 55 32 55 35 0 3 -36 5 -79 4 -132 -4 -219 -41 -433 -184 -132 -88 -248
-154 -257 -146 -7 8 47 83 94 130 58 57 136 109 211 140 81 33 59 31 -88 -9
-257 -71 -427 -154 -555 -271 -26 -24 -49 -43 -50 -41 -6 5 27 109 48 151 13
26 44 66 69 88 l45 41 -38 -22 c-143 -82 -356 -284 -528 -502 -59 -74 -162
-226 -172 -254 -4 -10 -10 -16 -13 -13 -16 16 98 222 174 315 l36 44 -50 -3
c-91 -5 -183 -42 -289 -114 -87 -59 -112 -82 -301 -264 -83 -80 -162 -155
-175 -167 -39 -34 -151 -114 -159 -114 -4 0 -2 21 6 48 18 57 16 176 -3 252
-8 30 -34 95 -59 144 -24 49 -41 94 -37 100 4 6 11 16 15 21 44 53 80 106 76
111 -3 3 -43 17 -89 32 l-84 27 -1 84 c-5 243 -19 412 -50 581 -9 47 -18 96
-20 110 -3 14 -7 33 -10 42 -3 9 -6 25 -8 35 -16 80 -125 413 -142 432 -2 2
-2 -59 1 -135 5 -173 6 -529 1 -569 -2 -16 -7 -59 -11 -95 -14 -148 -65 -371
-84 -370 -3 0 -33 15 -66 34 l-60 33 5 59 c3 32 5 140 4 239 0 163 -3 189 -28
280 -45 168 -131 313 -230 388 l-36 28 -1 -63 c-2 -151 -11 -339 -24 -463 -2
-22 -7 -69 -10 -105 -4 -35 -8 -67 -10 -70 -2 -3 -6 -30 -10 -60 -3 -30 -8
-56 -11 -59 -4 -4 -70 20 -169 64 -27 13 -75 33 -105 45 -30 12 -58 25 -62 29
-4 4 -10 56 -13 116 -9 173 -19 290 -31 360 -14 73 -47 201 -55 210 -5 5 -9
17 -9 26 0 9 -7 30 -15 45 -19 36 -19 27 0 -45 43 -166 38 -427 -11 -591 -10
-33 -21 -60 -25 -60 -11 0 -193 71 -201 78 -3 4 -9 34 -13 67 -16 166 -75 431
-138 625 -36 111 -88 243 -92 238 -2 -2 5 -50 15 -108 10 -58 22 -134 26 -170
11 -80 11 -368 1 -430 -15 -91 -27 -140 -35 -140 -14 0 -206 70 -212 77 -4 5
-19 69 -34 143 -14 74 -29 146 -31 160 -3 14 -8 38 -11 54 -2 16 -7 32 -9 36
-2 4 -6 20 -9 36 -7 40 -50 179 -72 234 -52 131 -133 249 -240 349 l-78 73
-18 -37 c-25 -47 -36 -137 -25 -205 7 -49 53 -203 76 -255 57 -129 117 -302
126 -360 12 -79 15 -118 10 -126 -3 -4 -26 0 -52 8 -27 8 -77 22 -113 32 -51
13 -68 22 -77 42 -11 23 -58 189 -68 238 -34 179 -115 387 -182 470 -45 55
-103 111 -114 111 -16 0 -2 -202 19 -280 11 -41 56 -170 101 -287 45 -117 81
-217 81 -223 0 -12 -28 -9 -112 9 -24 5 -59 12 -78 16 -119 20 -106 11 -162
115 -124 233 -268 408 -407 493 -33 20 -61 35 -61 32 0 -3 36 -58 79 -123 44
-65 102 -161 128 -213 48 -94 101 -235 91 -244 -2 -3 -65 4 -139 14 -74 11
-154 22 -178 25 -24 3 -45 7 -46 8 -1 2 -17 39 -34 83 -45 109 -113 245 -152
302 -79 116 -209 212 -308 228 -19 3 -38 8 -43 11 -24 15 1 -14 90 -103 134
-134 211 -250 246 -373 19 -68 28 -120 21 -120 -16 0 -327 229 -355 260 -3 3
-59 50 -125 104 -66 55 -123 102 -127 105 -7 6 -13 78 -23 306 -4 72 -8 159
-10 195 -3 36 -7 121 -10 190 -3 69 -7 159 -10 200 -6 96 -13 221 -21 385 -6
116 -9 184 -13 222 -1 7 -4 12 -8 11 -10 -2 -231 38 -498 92 -27 5 -66 12 -85
15 -19 3 -42 8 -50 10 -8 2 -31 7 -50 10 -19 3 -80 15 -135 26 -55 11 -113 22
-130 24 -16 3 -52 9 -80 15 -68 14 -336 66 -410 79 -33 6 -71 13 -85 16 -14 3
-38 7 -55 10 -16 3 -50 10 -75 15 -25 5 -56 12 -70 14 -14 3 -50 10 -80 16
-30 6 -66 13 -80 15 -14 2 -86 16 -160 30 -74 14 -180 34 -235 45 -113 21
-247 47 -445 85 -74 14 -169 32 -210 40 -41 8 -169 32 -284 54 -244 48 -213
43 -221 31z m3575 -2500 c16 -33 30 -62 30 -65 0 -3 -13 -5 -29 -5 -29 0 -29
1 -33 65 -1 36 -2 65 -1 65 2 0 16 -27 33 -60z m17296 -8365 c29 -38 65 -83
79 -99 14 -16 24 -31 22 -32 -4 -4 -201 -43 -204 -40 -1 1 -4 75 -7 165 l-5
163 31 -44 c17 -23 55 -74 84 -113z m-201 -1339 c22 -3 72 -10 110 -16 39 -6
81 -13 95 -15 14 -2 39 -6 55 -9 17 -3 98 -17 180 -31 83 -14 197 -34 255 -45
58 -11 116 -21 130 -24 65 -11 357 -68 372 -72 10 -3 23 -27 33 -62 9 -31 23
-75 30 -97 24 -74 110 -383 119 -432 2 -10 15 -65 29 -123 36 -147 77 -361
101 -517 31 -202 35 -235 41 -302 3 -31 7 -74 10 -96 5 -45 14 -164 20 -275 5
-91 6 -399 0 -495 -4 -87 -16 -231 -20 -259 -2 -11 -6 -43 -10 -71 -10 -82
-15 -117 -25 -170 -5 -27 -12 -63 -15 -80 -3 -16 -11 -54 -18 -84 l-12 -55
-85 120 c-47 65 -124 173 -173 239 -48 66 -118 163 -155 215 -108 151 -412
571 -446 616 -17 23 -38 52 -46 64 -8 12 -75 103 -148 203 -73 100 -141 193
-150 207 -16 24 -206 287 -398 553 -58 80 -91 135 -89 147 2 10 6 47 10 82 3
35 8 79 10 98 2 19 7 64 10 100 13 147 25 251 46 400 9 65 29 170 45 235 3 11
6 25 7 30 5 21 18 34 30 30 7 -2 30 -6 52 -9z m44 -1951 c157 -209 289 -384
294 -390 8 -11 138 -183 172 -229 11 -15 87 -115 168 -224 82 -108 157 -208
167 -222 58 -79 193 -257 203 -270 7 -8 42 -56 79 -105 61 -83 67 -95 72 -152
29 -332 25 -915 -9 -1293 -13 -142 -15 -167 -20 -195 -2 -16 -7 -52 -10 -80
-3 -27 -20 -126 -36 -220 -99 -559 -283 -992 -530 -1243 -18 -18 -39 -45 -47
-60 -54 -102 -522 -1146 -522 -1165 0 -6 -52 71 -115 172 -63 100 -115 184
-115 187 0 3 -5 10 -11 17 -11 13 -583 930 -690 1107 -64 106 -126 213 -170
295 -30 55 -59 109 -65 120 -73 129 -82 157 -88 285 -4 69 -9 134 -11 145 -2
11 -7 49 -10 85 -3 36 -8 79 -11 95 -3 17 -6 39 -8 50 -2 10 12 52 31 91 42
93 113 286 143 389 12 44 28 97 36 118 8 20 12 37 9 37 -2 0 3 22 11 49 16 54
59 261 69 331 3 25 8 52 10 60 11 38 42 331 50 480 6 88 6 456 1 550 -5 82
-17 240 -21 260 -2 8 -6 44 -10 80 l-7 65 22 -28 22 -27 39 60 c74 115 120
231 153 390 56 270 83 376 110 442 9 20 60 81 113 136 101 103 118 127 153
224 l21 58 37 -48 c19 -26 164 -218 321 -427z m-20449 -1209 c0 -1 -12 -27
-27 -57 -18 -37 -28 -75 -31 -122 -4 -64 -2 -71 26 -106 l30 -37 -27 -12 c-86
-37 -151 -66 -186 -82 -22 -10 -103 -46 -180 -80 -77 -34 -153 -68 -170 -75
-126 -56 -148 -66 -150 -63 -8 8 343 368 466 479 151 136 194 167 223 162 14
-3 26 -6 26 -7z m765 -1716 c2 -12 7 -68 10 -123 9 -171 20 -238 61 -402 17
-67 60 -209 73 -240 57 -135 81 -195 81 -198 0 -2 -8 -4 -17 -4 -65 3 -203
-34 -298 -79 -221 -106 -365 -319 -462 -684 -16 -60 -17 -65 -29 -130 -4 -25
-8 -47 -9 -50 -2 -9 -16 -93 -21 -125 -32 -212 -129 -356 -308 -460 -132 -77
-213 -131 -246 -167 -61 -65 -97 -159 -94 -244 l1 -51 -110 -47 c-61 -25 -111
-45 -113 -44 -2 3 2 25 21 118 13 60 76 367 80 390 3 14 25 122 50 240 25 118
47 226 50 240 4 23 7 38 20 98 3 12 7 32 10 45 2 12 11 54 19 92 9 39 18 81
20 95 3 14 10 50 16 80 6 30 13 66 16 79 3 12 11 51 19 85 8 33 17 76 20 95 3
19 8 37 10 41 2 4 7 22 10 41 3 19 8 42 11 51 3 9 6 25 8 35 2 10 14 56 26
103 12 47 23 93 25 103 2 9 22 83 45 163 l40 145 71 82 c39 45 114 139 167
209 l95 127 81 32 c130 51 401 192 501 260 44 30 44 30 50 -1z m-1430 -1162
c-10 -28 -278 -1139 -299 -1241 -3 -12 -7 -31 -10 -42 -3 -11 -14 -58 -25
-105 l-20 -85 1 193 c0 106 -2 196 -5 198 -5 5 -202 -95 -232 -116 -5 -4 -41
-24 -80 -45 -321 -173 -801 -512 -1145 -809 -170 -148 -195 -171 -441 -416
-250 -249 -352 -361 -556 -607 -183 -221 -177 -215 -263 -260 -41 -22 -135
-72 -208 -113 l-133 -73 -332 0 c-183 0 -379 3 -437 8 -58 4 -130 9 -160 10
-79 5 -189 14 -230 20 -19 2 -59 7 -89 11 -30 3 -63 7 -74 10 -11 2 -43 6 -71
9 -41 5 -271 48 -371 70 -120 27 -376 114 -379 130 -4 30 582 436 1042 722 37
22 72 46 79 52 7 6 15 11 18 11 4 0 25 12 48 28 23 15 50 32 60 37 9 6 56 35
104 66 49 31 158 100 243 154 859 544 1284 865 1693 1279 l137 139 -85 -172
c-47 -94 -85 -176 -85 -180 0 -11 6 -9 170 36 726 198 1509 591 2065 1037 39
31 71 56 72 56 1 0 0 -6 -2 -12z m19996 -658 c145 -254 187 -327 219 -380 5
-8 61 -105 126 -215 64 -110 137 -234 162 -275 99 -165 108 -171 -130 84 l-58
61 -1 -45 c0 -25 -2 -56 -3 -70 -2 -14 -6 -57 -10 -96 -4 -39 -8 -80 -10 -90
-2 -11 -7 -48 -11 -84 -4 -36 -9 -73 -10 -82 -2 -9 -6 -45 -10 -79 -4 -35 -8
-66 -10 -69 -1 -3 -6 -34 -10 -70 -4 -36 -8 -67 -10 -70 -1 -3 -6 -36 -10 -75
-4 -38 -8 -72 -10 -75 -1 -3 -6 -30 -9 -61 -4 -31 -9 -67 -11 -80 -3 -13 -7
-41 -10 -64 -3 -22 -8 -56 -10 -75 -3 -19 -8 -53 -10 -75 -3 -22 -7 -47 -10
-55 -2 -8 -7 -39 -10 -69 -4 -30 -8 -62 -10 -71 -2 -9 -6 -41 -10 -70 -4 -29
-8 -62 -11 -73 -2 -11 -6 -41 -9 -66 -3 -25 -7 -57 -10 -70 -2 -14 -7 -47 -10
-75 -3 -28 -8 -58 -10 -66 -2 -8 -7 -44 -10 -80 -4 -36 -8 -67 -10 -70 -1 -3
-6 -30 -9 -61 -4 -31 -9 -67 -11 -80 -3 -13 -7 -49 -10 -79 -3 -30 -7 -66 -10
-80 -3 -14 -7 -47 -10 -75 -3 -27 -7 -61 -10 -75 -2 -14 -7 -54 -10 -90 -3
-36 -8 -72 -10 -80 -5 -21 -18 -214 -19 -280 0 -59 11 -237 20 -311 4 -35 -1
-67 -24 -135 -40 -119 -115 -356 -118 -369 -1 -6 -10 -37 -20 -68 -16 -51 -31
-71 -129 -170 -141 -141 -286 -279 -290 -275 -2 2 -6 32 -9 68 -3 36 -7 81
-10 100 -3 19 -10 79 -16 134 -7 54 -13 108 -15 118 -3 11 -7 41 -10 66 -3 25
-21 139 -40 253 l-36 207 22 53 c11 30 22 55 24 57 2 2 18 -4 35 -13 30 -15
116 -45 132 -45 7 0 90 114 101 140 4 8 11 22 16 30 17 28 49 105 76 185 14
44 28 82 30 84 6 5 71 -45 105 -81 l28 -29 4 43 c6 57 2 276 -7 363 -10 107
-18 157 -46 307 -11 59 -23 120 -25 135 -3 16 -19 82 -35 148 -17 66 -32 127
-34 135 -10 43 -37 149 -45 175 -25 78 -123 413 -130 440 -15 61 -120 383
-149 455 -16 41 -26 80 -22 85 4 6 18 35 30 65 13 30 29 69 37 85 102 229 278
767 320 980 2 11 15 74 28 140 32 155 47 241 61 360 1 11 3 24 4 30 2 17 17
-8 182 -295z m-20396 -1029 c-3 -5 -9 -29 -14 -53 -5 -24 -16 -77 -26 -118 -9
-41 -18 -84 -21 -95 -25 -124 -25 -123 -70 -145 -24 -11 -46 -20 -48 -20 -3 0
-40 -16 -83 -36 -43 -20 -91 -42 -108 -49 -16 -8 -57 -26 -90 -40 -114 -52
-112 -51 -80 -8 16 21 38 50 49 65 12 14 32 41 46 59 99 132 251 293 380 402
51 44 79 60 65 38z m21202 -342 l103 -170 -55 -135 c-31 -74 -61 -146 -67
-162 -6 -15 -12 -29 -13 -32 -9 -27 -19 -50 -33 -75 -9 -16 -16 -32 -15 -35 0
-3 -3 -14 -8 -25 -5 -14 -8 -15 -9 -5 -1 8 -3 24 -6 35 -5 23 -10 62 -21 160
-10 85 -10 472 -1 535 4 25 7 53 7 63 1 9 4 17 9 17 4 0 53 -77 109 -171z
m-20078 -1207 c162 -135 399 -249 651 -315 99 -25 134 -30 255 -31 144 -1 203
4 290 24 28 6 60 14 71 16 45 8 194 54 318 98 l129 45 -37 -38 -37 -38 5 -94
c4 -52 8 -114 10 -139 3 -25 7 -92 11 -150 4 -58 8 -123 10 -145 2 -22 7 -87
10 -145 3 -58 7 -127 9 -155 3 -27 8 -95 11 -150 4 -55 8 -122 10 -150 2 -27
6 -95 10 -150 3 -55 7 -127 10 -160 2 -33 7 -100 10 -150 3 -49 8 -117 10
-150 3 -33 7 -100 10 -150 3 -49 8 -112 10 -140 18 -224 18 -235 -19 -381 -47
-189 -65 -264 -71 -294 -8 -44 -36 -184 -42 -210 -3 -14 -7 -32 -8 -40 -6 -40
-16 -97 -20 -110 -3 -8 -7 -35 -9 -60 -3 -25 -8 -56 -10 -69 -7 -33 -31 -214
-40 -311 -25 -239 -29 -333 -29 -600 0 -219 5 -364 18 -470 2 -19 7 -60 10
-90 53 -462 187 -889 398 -1269 26 -46 47 -86 47 -88 0 -3 9 -17 20 -32 25
-36 33 -89 45 -321 4 -75 13 -214 21 -315 2 -38 7 -106 9 -150 3 -44 7 -107
10 -140 3 -33 7 -98 10 -145 3 -47 7 -114 10 -150 2 -36 7 -103 10 -150 7
-110 13 -205 21 -305 3 -44 7 -107 9 -140 2 -33 6 -100 9 -150 4 -49 9 -124
11 -165 3 -41 7 -104 10 -140 2 -36 7 -99 9 -140 12 -179 17 -259 22 -317 4
-60 -1 -73 -21 -54 -19 16 -141 60 -190 67 -97 15 -193 9 -280 -16 -87 -26
-199 -107 -248 -183 -28 -41 -30 -38 -42 33 -3 19 -10 58 -15 85 -5 28 -12 64
-14 80 -3 17 -12 73 -21 125 -9 52 -18 106 -20 120 -2 14 -11 66 -19 115 -17
104 -23 141 -31 210 -3 28 -8 61 -10 75 -3 14 -7 41 -10 60 -2 19 -7 53 -10
75 -10 69 -24 169 -30 210 -3 22 -8 56 -11 75 -3 19 -8 46 -10 60 -2 14 -6 40
-9 58 -3 17 -8 49 -11 70 -2 20 -6 44 -9 52 -2 8 -7 35 -10 60 -3 25 -10 68
-15 95 -5 28 -11 64 -14 80 -3 17 -10 57 -16 90 -6 33 -13 76 -16 95 -5 33 -7
45 -19 108 -8 40 -37 193 -41 222 -3 14 -12 57 -20 96 -9 40 -17 82 -19 95 -7
54 -122 586 -165 769 -92 388 -208 833 -296 1134 -19 67 -37 128 -39 136 -1 8
-12 44 -23 80 -12 36 -39 126 -62 200 -23 74 -48 153 -57 175 -8 22 -16 47
-18 55 -11 55 -219 641 -306 865 -34 88 -74 192 -89 230 -15 39 -43 111 -63
160 -20 50 -50 135 -66 190 -113 374 -138 456 -178 590 -25 83 -51 170 -58
195 -7 25 -36 122 -64 215 -28 94 -63 208 -77 255 -14 47 -28 94 -32 105 -3
11 -6 22 -7 25 -12 59 -58 168 -147 350 -61 124 -158 322 -216 440 -57 118
-106 218 -108 222 -3 5 120 52 166 63 3 1 12 5 20 8 8 4 49 18 90 33 41 14 89
32 105 39 17 7 77 32 135 55 121 49 225 96 360 162 52 25 97 47 99 47 2 1 24
-16 50 -37z m26862 1 c13 -16 12 -17 -3 -4 -17 13 -22 21 -14 21 2 0 10 -8 17
-17z m37 -48 c-3 -3 -9 2 -12 12 -6 14 -5 15 5 6 7 -7 10 -15 7 -18z m-5676
-604 c68 -108 126 -197 130 -199 5 -2 8 -8 8 -13 0 -6 9 -22 19 -37 11 -15 83
-128 162 -252 78 -124 164 -258 191 -298 26 -41 48 -76 48 -79 0 -2 18 -30 39
-61 22 -32 79 -120 128 -197 50 -77 128 -198 174 -270 47 -71 143 -220 215
-329 219 -339 352 -540 363 -553 6 -7 11 -14 11 -17 0 -3 25 -42 55 -86 30
-44 55 -85 55 -90 0 -4 4 -10 9 -12 5 -1 17 -17 27 -34 11 -17 37 -58 59 -90
46 -69 60 -91 76 -121 7 -13 16 -23 21 -23 4 0 8 -5 8 -12 0 -6 7 -21 17 -32
21 -27 -93 90 -255 262 -69 73 -129 129 -133 125 -7 -7 -61 -245 -73 -323 -9
-56 -16 -93 -21 -118 -3 -12 -8 -44 -11 -70 -3 -26 -7 -58 -9 -72 -3 -14 -7
-50 -11 -80 -3 -30 -7 -66 -9 -79 -2 -12 -7 -60 -11 -105 -4 -44 -8 -88 -10
-96 -1 -8 -3 -24 -3 -34 -1 -11 -41 44 -91 123 -130 207 -191 300 -422 646
-239 357 -218 329 -453 642 -99 132 -187 250 -195 262 -8 13 -33 48 -55 79
-22 32 -63 91 -90 132 -28 41 -52 77 -55 80 -6 6 -101 152 -180 280 -70 111
-200 333 -246 418 -132 242 -134 247 -120 268 7 10 38 63 69 116 31 53 92 140
136 193 43 53 126 161 182 241 91 126 106 142 116 127 7 -9 68 -105 135 -212z
m-22797 112 c-3 -15 -11 -50 -16 -78 -5 -27 -11 -59 -13 -70 -10 -45 -68 -332
-72 -355 -3 -14 -14 -68 -24 -120 -10 -52 -21 -106 -24 -120 -2 -14 -7 -36
-10 -50 -3 -14 -8 -38 -10 -53 -3 -15 -12 -60 -20 -100 -11 -55 -79 -399 -112
-572 -2 -11 -6 -31 -9 -45 -2 -14 -7 -39 -10 -56 -2 -17 -18 -100 -34 -185
-16 -85 -32 -165 -34 -179 -33 -175 -77 -410 -81 -430 -2 -14 -25 -135 -50
-270 -25 -135 -48 -261 -51 -280 -3 -19 -8 -46 -10 -60 -3 -14 -8 -36 -10 -50
-3 -14 -19 -104 -36 -200 -17 -96 -33 -182 -34 -190 -2 -8 -4 -23 -4 -33 -1
-10 -4 -16 -8 -14 -5 3 -7 127 -6 275 l3 271 -53 -34 c-28 -19 -57 -38 -62
-42 -6 -4 -39 -28 -75 -52 -73 -50 -311 -228 -352 -263 -14 -13 -45 -39 -68
-57 -24 -19 -48 -40 -54 -45 -7 -6 -25 -22 -40 -36 l-28 -25 6 40 c3 22 8 51
11 65 2 14 7 43 10 65 3 22 7 51 10 65 5 28 7 40 30 215 9 66 18 131 20 145 3
14 7 48 10 75 3 28 7 61 10 75 2 14 7 54 11 90 3 36 7 72 9 80 2 8 6 49 10 90
4 41 8 82 10 90 1 8 6 49 10 90 3 41 8 86 10 100 2 14 7 57 10 95 3 39 8 84 9
100 14 130 18 167 26 220 11 74 18 128 25 180 10 82 17 133 35 240 10 61 21
124 23 140 6 36 27 153 42 225 2 14 7 41 10 60 3 19 10 51 15 70 5 19 12 49
14 65 6 28 11 53 20 93 2 9 9 40 15 67 7 28 28 113 47 190 20 77 38 147 39
155 7 30 53 181 57 185 5 6 251 76 278 80 14 1 57 6 95 9 39 4 77 9 85 11 8 2
33 6 55 10 22 3 90 15 150 26 61 12 121 23 135 26 13 2 27 6 29 9 2 2 11 4 19
4 10 0 12 -7 7 -27z m3231 -9210 c0 -1 -26 -4 -57 -8 -43 -5 -56 -3 -56 7 0 7
-3 30 -7 50 l-6 37 64 -42 c35 -23 63 -43 62 -44z m196 -961 c122 -167 228
-324 228 -337 0 -4 8 -19 18 -33 64 -93 302 -573 307 -620 2 -20 7 -91 11
-157 4 -66 8 -136 9 -155 11 -163 17 -261 20 -291 3 -26 -2 -43 -21 -64 -68
-79 -95 -152 -99 -265 -6 -139 27 -264 130 -493 51 -117 54 -127 61 -232 3
-60 7 -114 8 -119 3 -22 -151 -27 -329 -11 -259 23 -396 22 -517 -5 -40 -8
-37 -13 -53 93 -2 12 -6 33 -9 47 -3 14 -13 66 -22 115 -8 50 -17 101 -19 115
-3 14 -8 48 -11 75 -3 28 -8 61 -10 75 -23 148 -22 717 1 905 2 17 7 68 10
115 4 47 8 99 10 115 1 17 6 68 10 115 3 47 8 96 10 110 2 14 7 63 10 110 4
47 8 101 10 120 3 36 14 192 20 290 11 170 3 622 -11 690 -3 15 18 -10 51 -58
30 -46 110 -158 177 -250z m293 -4007 c15 -6 6 -10 -40 -21 -82 -18 -79 -18
-94 24 -8 20 -16 42 -18 49 -3 7 26 -1 64 -16 37 -16 77 -32 88 -36z"/>
<path d="M35801 37089 c20 -19 79 -68 133 -109 53 -41 115 -90 138 -107 22
-18 43 -33 46 -33 4 0 -3 8 -14 18 -183 148 -275 222 -304 241 l-35 24 36 -34z"/>
<path d="M36141 36818 c23 -19 143 -124 203 -179 137 -124 308 -264 376 -308
42 -28 -131 145 -210 209 -30 25 -57 47 -60 51 -9 10 -294 225 -310 233 -11 5
-11 4 1 -6z"/>
<path d="M35470 35306 c0 -2 8 -10 18 -17 15 -13 16 -12 3 4 -13 16 -21 21
-21 13z"/>
<path d="M35787 29934 c-1 -1 -42 -5 -92 -9 -85 -6 -108 -8 -195 -20 -19 -3
-53 -8 -75 -10 -22 -3 -51 -8 -65 -11 -14 -2 -36 -6 -50 -9 -63 -12 -90 -18
-163 -37 -43 -11 -75 -24 -70 -28 4 -4 42 -25 83 -48 358 -191 455 -243 650
-349 225 -123 235 -128 320 -186 112 -75 223 -162 424 -330 495 -417 593 -482
1091 -717 106 -50 594 -270 615 -277 8 -3 35 -14 60 -25 25 -11 54 -24 65 -28
11 -5 47 -21 80 -36 33 -14 157 -68 275 -119 372 -160 679 -299 983 -444 71
-34 130 -61 133 -61 11 0 650 -320 794 -398 473 -256 897 -530 1163 -752 529
-439 862 -849 1119 -1375 43 -88 78 -158 78 -155 0 3 -30 82 -66 175 -37 94
-75 190 -84 215 -18 49 -19 50 -91 228 -44 110 -95 230 -134 317 -7 17 -32 73
-55 125 -123 277 -363 740 -476 918 -19 29 -34 55 -34 58 0 8 -221 343 -303
459 -210 298 -494 652 -696 870 -84 90 -428 433 -496 495 -224 203 -356 310
-512 416 -664 456 -1768 860 -2848 1044 -156 27 -161 28 -220 35 -27 3 -57 7
-65 9 -15 5 -100 15 -180 22 -25 2 -58 6 -75 8 -16 3 -70 8 -120 11 -49 4
-110 9 -135 12 -45 4 -628 12 -633 7z"/>
<path d="M43010 24495 c0 -5 5 -17 10 -25 5 -8 10 -10 10 -5 0 6 -5 17 -10 25
-5 8 -10 11 -10 5z"/>
</g>
</svg>
